<svg width="358" height="72" viewBox="0 0 358 72" fill="none" xmlns="http://www.w3.org/2000/svg">
<g clip-path="url(#clip0_16_205)">
<path d="M93.4058 59.3746C95.0906 71.676 59.8768 64.6107 55.5749 63.8173C42.4466 61.3946 15.0781 70.6554 15.0781 70.6554C14.1824 70.3919 18.9352 54.8412 27.8164 49.8049C21.2751 45.2018 0.0608857 35.4655 0.0365121 35.4261C-1.73058 32.4008 59.4716 24.2574 78.1479 28.37C89.8503 30.9471 92.1506 50.1805 93.4089 59.3746H93.4058Z" fill="#D1361A"/>
<path d="M264.56 60.0531C262.921 72.4483 298.044 65.5133 302.461 64.7138C315.757 62.3062 343.123 71.9971 343.123 71.9971C344 71.7366 342.913 55.0108 333.961 49.799C340.484 45.1655 357.945 36.2439 357.963 36.2136C359.764 33.1792 298.668 24.5119 279.706 28.7426C267.973 31.3591 265.782 50.8286 264.56 60.0501V60.0531Z" fill="#D1361A"/>
<path d="M29.4405 50.7441C33.5593 58.0267 52.2399 57.1491 60.775 56.9973C68.2081 56.8664 88.0773 54.5787 93.2771 60.0139C93.1556 55.3463 93.0383 50.6816 92.9168 46.0139C71.3632 46.832 50.8558 47.067 29.2771 46.6892C29.34 48.3106 29.3735 49.1227 29.4363 50.7441H29.4405Z" fill="#851703"/>
<path d="M328.872 51.0774C324.775 58.3544 305.684 57.2336 297.026 57.0598C289.507 56.9066 269.238 54.585 264 60C264.098 55.3333 264.191 50.6667 264.289 46C286.197 46.8426 306.931 47.3679 328.868 47.0556C328.817 48.6848 328.919 49.4453 328.868 51.0774H328.872Z" fill="#851703"/>
<path d="M179.093 51C214.006 50.9939 248.894 49.8796 283.796 48.5928C294.233 48.2082 304.749 47.642 315.2 47.9266C319.417 48.0417 326.249 47.5118 328.853 50.7032C329.235 35.6543 329.617 20.6083 329.998 5.55934C330.067 2.87959 327.769 1.00528 324.281 0.872053C275.984 -0.968948 227.363 0.657068 179.018 0.784242C130.651 0.911416 82.0134 -0.442083 33.6919 1.41406C30.2038 1.54729 27.9196 3.39435 28.0022 6.03473C28.4734 20.8596 28.9447 35.6845 29.4194 50.5125C31.652 47.8237 36.5918 48.075 40.2829 47.9024C51.6074 47.3725 63.1003 48.1355 74.411 48.5685C109.303 49.9039 144.188 51.006 179.097 51H179.093Z" fill="#FC3F1D"/>
</g>
<defs>
<clipPath id="clip0_16_205">
<rect width="358" height="72" fill="white"/>
</clipPath>
</defs>
</svg>
